<?xml version="1.0" standalone="no"?>
<!DOCTYPE svg PUBLIC "-//W3C//DTD SVG 20010904//EN"
 "http://www.w3.org/TR/2001/REC-SVG-20010904/DTD/svg10.dtd">
<svg version="1.0" xmlns="http://www.w3.org/2000/svg"
 width="512.000000pt" height="512.000000pt" viewBox="0 0 512.000000 512.000000"
 preserveAspectRatio="xMidYMid meet">
<metadata>
Created by potrace 1.14, written by Peter Selinger 2001-2017
</metadata>
<g transform="translate(0.000000,512.000000) scale(0.100000,-0.100000)"
fill="#000000" stroke="none">
<path d="M2938 4945 c-2 -1 -28 -6 -58 -9 -186 -22 -420 -92 -607 -182 l-113
-54 14 -28 c8 -15 37 -67 65 -115 28 -49 51 -91 51 -93 0 -3 14 -25 30 -49 17
-24 30 -46 30 -49 0 -3 26 -51 58 -108 118 -208 190 -334 222 -393 18 -33 80
-143 138 -245 58 -102 118 -207 133 -235 15 -27 74 -133 132 -234 l104 -185
969 0 c533 -1 979 1 992 3 24 4 24 4 17 111 -3 59 -8 118 -10 131 -2 13 -9 54
-15 90 -46 296 -181 607 -374 864 -93 125 -237 272 -346 354 -19 14 -41 31
-48 38 -28 26 -182 123 -262 165 -194 100 -411 173 -610 204 -14 2 -52 8 -85
13 -54 8 -419 14 -427 6z"/>
<path d="M1885 4275 c-134 -89 -223 -162 -332 -273 l-93 -93 -57 39 c-358 243
-828 200 -1135 -102 -116 -114 -192 -244 -240 -411 -33 -113 -33 -342 0 -458
61 -215 190 -394 367 -512 161 -107 281 -145 481 -152 l130 -5 13 -77 c16 -95
69 -271 114 -377 l34 -80 -47 -17 c-37 -13 -75 -45 -188 -159 -77 -79 -160
-164 -184 -189 -23 -26 -139 -146 -256 -267 -365 -377 -353 -361 -360 -469 -5
-74 8 -117 53 -176 73 -96 209 -127 319 -73 50 25 115 88 475 465 29 31 100
104 158 163 l105 108 36 -30 c21 -17 150 -118 287 -226 138 -108 259 -203 270
-212 11 -9 92 -73 180 -142 88 -69 167 -130 175 -137 103 -85 274 -212 301
-224 47 -19 165 -17 209 4 39 19 81 56 122 108 14 19 35 44 45 56 10 12 63 78
117 147 88 111 103 126 130 127 38 1 63 4 186 25 487 82 939 355 1241 749 127
166 234 363 298 552 44 128 78 263 87 346 3 29 8 59 10 67 3 8 8 66 11 127 l6
113 -994 2 -993 3 -129 225 c-70 124 -131 231 -134 239 -4 8 -31 58 -61 110
-64 113 -83 146 -172 306 -96 171 -110 197 -180 320 -62 107 -83 145 -136 243
-92 168 -159 282 -164 282 -4 0 -51 -29 -105 -65z"/>
</g>
</svg>
